<?xml version="1.0" encoding="UTF-8" standalone="no"?>
<!-- Created with Inkscape (http://www.inkscape.org/) -->

<svg
   width="210mm"
   height="210mm"
   viewBox="0 0 210 210"
   version="1.1"
   id="svg1"
   xml:space="preserve"
   sodipodi:docname="bilingual_file.svg"
   inkscape:version="1.3.2 (091e20e, 2023-11-25, custom)"
   xmlns:inkscape="http://www.inkscape.org/namespaces/inkscape"
   xmlns:sodipodi="http://sodipodi.sourceforge.net/DTD/sodipodi-0.dtd"
   xmlns="http://www.w3.org/2000/svg"
   xmlns:svg="http://www.w3.org/2000/svg"><sodipodi:namedview
     id="namedview1"
     pagecolor="#ffffff"
     bordercolor="#eeeeee"
     borderopacity="1"
     inkscape:showpageshadow="0"
     inkscape:pageopacity="0"
     inkscape:pagecheckerboard="0"
     inkscape:deskcolor="#9f9f9f"
     inkscape:document-units="mm"
     inkscape:zoom="1.4592172"
     inkscape:cx="397.47339"
     inkscape:cy="591.07034"
     inkscape:window-width="1920"
     inkscape:window-height="1057"
     inkscape:window-x="-8"
     inkscape:window-y="-8"
     inkscape:window-maximized="1"
     inkscape:current-layer="layer1" /><defs
     id="defs1" /><g
     inkscape:label="Layer 1"
     inkscape:groupmode="layer"
     id="layer1"><path
       d="m 39.219828,6.8900187 c -11.079967,0 -19.999813,8.9203623 -19.999813,20.0003293 V 181.62612 c 0,11.07997 8.919846,20.00033 19.999813,20.00033 H 169.29664 c 11.07997,0 19.99982,-8.92036 19.99982,-20.00033 V 81.956238 H 166.225 c 0.85979,2.688756 1.34617,5.522276 1.34617,8.465633 0,0 4.48123,22.947979 0,32.990239 -6.19885,13.89138 -19.75891,25.03932 -33.96485,30.47876 -3.08251,1.18029 -9.90224,0 -9.90224,0 l -23.38307,40.50037 -23.382554,-40.50037 c 0,0 -6.1421,1.06301 -8.918318,0 -14.205939,-5.43944 -27.766001,-16.58738 -33.964852,-30.47876 -4.48123,-10.04226 -4.48123,-22.94798 0,-32.990239 6.198851,-13.891381 19.758913,-25.03932 33.964852,-30.47876 13.481982,-5.162238 43.309502,0 43.309502,0 V 6.8900187 Z"
       style="fill:#e0e0e0;stroke-width:5.17657;stroke-linecap:round;stroke-linejoin:round"
       id="path4"
       sodipodi:nodetypes="ssssssccsaacccaaaaccs" /><path
       id="rect2"
       style="fill:#e0e0e0;stroke-width:5.53852;stroke-linecap:round;stroke-linejoin:round"
       transform="matrix(0.7208058,0.69313707,-0.72392829,0.68987523,0,0)"
       d="m 86.900917,-73.990585 h 98.036953 c 3.6858,0 6.65308,2.163276 6.65308,4.850396 0,2.687119 -2.96728,4.850396 -6.65308,4.850396 H 86.900917 c -3.685809,0 -6.653084,-2.163277 -6.653084,-4.850396 0,-2.68712 2.967275,-4.850396 6.653084,-4.850396 z" /><path
       id="rect2-2"
       style="fill:#e0e0e0;stroke-width:4.66511;stroke-linecap:round;stroke-linejoin:round"
       d="m 112.13591,11.829174 -0.0933,69.621047 c -0.004,2.617466 -2.16746,4.656199 -4.85191,4.571117 -2.68444,-0.08508 -4.84275,-2.260787 -4.83924,-4.878262 l 0.0933,-69.621046 c 0.004,-2.617481 2.16745,-4.6562003 4.8519,-4.5711233 2.68445,0.085077 4.84275,2.2607864 4.83924,4.8782673 z" /><path
       id="rect2-2-9"
       style="fill:#e0e0e0;stroke-width:4.86924;stroke-linecap:round;stroke-linejoin:round"
       d="m 183.13804,87.700547 -75.84702,-0.0933 c -2.85152,-0.004 -5.07256,-2.16746 -4.9799,-4.85191 0.0927,-2.68444 2.46296,-4.84275 5.31451,-4.83924 l 75.84701,0.0933 c 2.85156,0.004 5.07257,2.16745 4.97989,4.8519 -0.0927,2.68445 -2.46296,4.84275 -5.31449,4.83924 z" /></g></svg>
